name C:\Users\u0101727\Documents\MyRepositories\upper-imu-dc\OpenSim\subject0\MA\ResultsMA\grid_4nodes_9dim\angles_14.mot
datacolumns 10
datarows 33
range 1400.01000000 1400.33000000
endheader 
time	clav_prot	clav_elev	scapula_abduction	scapula_elevation	scapula_upward_rot	scapula_winging	plane_elv	shoulder_elv	axial_rot	
       1400.01000000	        -50.00000000	        -10.00000000	         -3.33333333	         10.00000000	         60.00000000	        -20.00000000	         30.00000000	        -10.00000000	         30.00000000	
       1400.02000000	        -38.33333333	        -10.00000000	         -3.33333333	         10.00000000	         60.00000000	        -20.00000000	         30.00000000	        -10.00000000	         30.00000000	
       1400.03000000	        -26.66666667	        -10.00000000	         -3.33333333	         10.00000000	         60.00000000	        -20.00000000	         30.00000000	        -10.00000000	         30.00000000	
       1400.04000000	        -15.00000000	        -10.00000000	         -3.33333333	         10.00000000	         60.00000000	        -20.00000000	         30.00000000	        -10.00000000	         30.00000000	
       1400.05000000	        -50.00000000	          0.00000000	         -3.33333333	         10.00000000	         60.00000000	        -20.00000000	         30.00000000	        -10.00000000	         30.00000000	
       1400.06000000	        -38.33333333	          0.00000000	         -3.33333333	         10.00000000	         60.00000000	        -20.00000000	         30.00000000	        -10.00000000	         30.00000000	
       1400.07000000	        -26.66666667	          0.00000000	         -3.33333333	         10.00000000	         60.00000000	        -20.00000000	         30.00000000	        -10.00000000	         30.00000000	
       1400.08000000	        -15.00000000	          0.00000000	         -3.33333333	         10.00000000	         60.00000000	        -20.00000000	         30.00000000	        -10.00000000	         30.00000000	
       1400.09000000	        -50.00000000	         10.00000000	         -3.33333333	         10.00000000	         60.00000000	        -20.00000000	         30.00000000	        -10.00000000	         30.00000000	
       1400.10000000	        -38.33333333	         10.00000000	         -3.33333333	         10.00000000	         60.00000000	        -20.00000000	         30.00000000	        -10.00000000	         30.00000000	
       1400.11000000	        -26.66666667	         10.00000000	         -3.33333333	         10.00000000	         60.00000000	        -20.00000000	         30.00000000	        -10.00000000	         30.00000000	
       1400.12000000	        -15.00000000	         10.00000000	         -3.33333333	         10.00000000	         60.00000000	        -20.00000000	         30.00000000	        -10.00000000	         30.00000000	
       1400.13000000	        -50.00000000	         20.00000000	         -3.33333333	         10.00000000	         60.00000000	        -20.00000000	         30.00000000	        -10.00000000	         30.00000000	
       1400.14000000	        -38.33333333	         20.00000000	         -3.33333333	         10.00000000	         60.00000000	        -20.00000000	         30.00000000	        -10.00000000	         30.00000000	
       1400.15000000	        -26.66666667	         20.00000000	         -3.33333333	         10.00000000	         60.00000000	        -20.00000000	         30.00000000	        -10.00000000	         30.00000000	
       1400.16000000	        -15.00000000	         20.00000000	         -3.33333333	         10.00000000	         60.00000000	        -20.00000000	         30.00000000	        -10.00000000	         30.00000000	
       1400.17000000	        -50.00000000	        -10.00000000	         15.00000000	         10.00000000	         60.00000000	        -20.00000000	         30.00000000	        -10.00000000	         30.00000000	
       1400.18000000	        -38.33333333	        -10.00000000	         15.00000000	         10.00000000	         60.00000000	        -20.00000000	         30.00000000	        -10.00000000	         30.00000000	
       1400.19000000	        -26.66666667	        -10.00000000	         15.00000000	         10.00000000	         60.00000000	        -20.00000000	         30.00000000	        -10.00000000	         30.00000000	
       1400.20000000	        -15.00000000	        -10.00000000	         15.00000000	         10.00000000	         60.00000000	        -20.00000000	         30.00000000	        -10.00000000	         30.00000000	
       1400.21000000	        -50.00000000	          0.00000000	         15.00000000	         10.00000000	         60.00000000	        -20.00000000	         30.00000000	        -10.00000000	         30.00000000	
       1400.22000000	        -38.33333333	          0.00000000	         15.00000000	         10.00000000	         60.00000000	        -20.00000000	         30.00000000	        -10.00000000	         30.00000000	
       1400.23000000	        -26.66666667	          0.00000000	         15.00000000	         10.00000000	         60.00000000	        -20.00000000	         30.00000000	        -10.00000000	         30.00000000	
       1400.24000000	        -15.00000000	          0.00000000	         15.00000000	         10.00000000	         60.00000000	        -20.00000000	         30.00000000	        -10.00000000	         30.00000000	
       1400.25000000	        -50.00000000	         10.00000000	         15.00000000	         10.00000000	         60.00000000	        -20.00000000	         30.00000000	        -10.00000000	         30.00000000	
       1400.26000000	        -38.33333333	         10.00000000	         15.00000000	         10.00000000	         60.00000000	        -20.00000000	         30.00000000	        -10.00000000	         30.00000000	
       1400.27000000	        -26.66666667	         10.00000000	         15.00000000	         10.00000000	         60.00000000	        -20.00000000	         30.00000000	        -10.00000000	         30.00000000	
       1400.28000000	        -15.00000000	         10.00000000	         15.00000000	         10.00000000	         60.00000000	        -20.00000000	         30.00000000	        -10.00000000	         30.00000000	
       1400.29000000	        -50.00000000	         20.00000000	         15.00000000	         10.00000000	         60.00000000	        -20.00000000	         30.00000000	        -10.00000000	         30.00000000	
       1400.30000000	        -38.33333333	         20.00000000	         15.00000000	         10.00000000	         60.00000000	        -20.00000000	         30.00000000	        -10.00000000	         30.00000000	
       1400.31000000	        -26.66666667	         20.00000000	         15.00000000	         10.00000000	         60.00000000	        -20.00000000	         30.00000000	        -10.00000000	         30.00000000	
       1400.32000000	        -15.00000000	         20.00000000	         15.00000000	         10.00000000	         60.00000000	        -20.00000000	         30.00000000	        -10.00000000	         30.00000000	
       1400.33000000	        -50.00000000	        -10.00000000	        -40.00000000	        -10.00000000	         90.00000000	        -20.00000000	         30.00000000	        -10.00000000	         30.00000000	
